<svg xmlns="http://www.w3.org/2000/svg" xmlns:xlink="http://www.w3.org/1999/xlink" id="Layer_1" width="559" height="247" x="0" y="0" enable-background="new 0 0 559 247" version="1.1" viewBox="0 0 559 247" xml:space="preserve"><rect width="84.8" height="84.8" x="124" y="65" fill="red"/><rect width="84.8" height="84.8" x="208.8" y="65" fill="#FF7F00"/><rect width="84.8" height="84.8" x="293.6" y="65" fill="#FF0"/><rect width="84.8" height="84.8" x="378.4" y="65" fill="#83FF00"/><rect width="84.8" height="84.8" x="463.2" y="65" fill="#0F0"/><rect width="84.8" height="84.8" x="124" y="148.8" fill="red"/><rect width="84.8" height="84.8" x="208.8" y="148.8" fill="#FF7F00"/><rect width="84.8" height="84.8" x="293.6" y="148.8" fill="#FF0"/><rect width="84.8" height="84.8" x="378.4" y="148.8" fill="#0F0"/><rect width="84.8" height="84.8" x="463.2" y="148.8" fill="#0F0"/><text transform="matrix(1 0 0 1 128 25.5)"><tspan x="0" y="0" fill="#222" font-family="'AtlasGrotesk'" font-size="10">100% red</tspan><tspan x="0" y="12" fill="#222" font-family="'AtlasGrotesk'" font-size="10">0% green</tspan><tspan x="0" y="24" fill="#222" font-family="'AtlasGrotesk'" font-size="10">0% blue</tspan></text><text transform="matrix(1 0 0 1 211 25.5)"><tspan x="0" y="0" fill="#222" font-family="'AtlasGrotesk'" font-size="10">100% red</tspan><tspan x="0" y="12" fill="#222" font-family="'AtlasGrotesk'" font-size="10">50% green</tspan><tspan x="0" y="24" fill="#222" font-family="'AtlasGrotesk'" font-size="10">0% blue</tspan></text><text transform="matrix(1 0 0 1 297 25.5)"><tspan x="0" y="0" fill="#222" font-family="'AtlasGrotesk'" font-size="10">100% red</tspan><tspan x="0" y="12" fill="#222" font-family="'AtlasGrotesk'" font-size="10">100% green</tspan><tspan x="0" y="24" fill="#222" font-family="'AtlasGrotesk'" font-size="10">0% blue</tspan></text><text transform="matrix(1 0 0 1 381 25.5)"><tspan x="0" y="0" fill="#222" font-family="'AtlasGrotesk'" font-size="10">50% red</tspan><tspan x="0" y="12" fill="#222" font-family="'AtlasGrotesk'" font-size="10">100% green</tspan><tspan x="0" y="24" fill="#222" font-family="'AtlasGrotesk'" font-size="10">0% blue</tspan></text><text transform="matrix(1 0 0 1 467 25.5)"><tspan x="0" y="0" fill="#222" font-family="'AtlasGrotesk'" font-size="10">0% red</tspan><tspan x="0" y="12" fill="#222" font-family="'AtlasGrotesk'" font-size="10">100% green</tspan><tspan x="0" y="24" fill="#222" font-family="'AtlasGrotesk'" font-size="10">0% blue</tspan></text><text fill="#222" font-family="'AtlasGrotesk'" font-size="10" transform="matrix(1 0 0 1 52.5 107.3999)">sRGB</text><text transform="matrix(1 0 0 1 52.5 187.1992)"><tspan x="0" y="0" fill="#222" font-family="'AtlasGrotesk'" font-size="10">Adobe RGB</tspan><tspan x="0" y="12" fill="#222" font-family="'AtlasGrotesk'" font-size="10">(1998)</tspan></text></svg>